<?xml version="1.0" encoding="UTF-8"?>
<!DOCTYPE svg PUBLIC "-//W3C//DTD SVG 1.1//EN" "http://www.w3.org/Graphics/SVG/1.1/DTD/svg11.dtd">
<!-- Creator: CorelDRAW X8 -->
<svg xmlns="http://www.w3.org/2000/svg" xml:space="preserve" width="3.20629in" height="3.4907in" version="1.1" style="shape-rendering:geometricPrecision; text-rendering:geometricPrecision; image-rendering:optimizeQuality; fill-rule:evenodd; clip-rule:evenodd"
viewBox="0 0 289 315"
 xmlns:xlink="http://www.w3.org/1999/xlink">
 <defs>
  <style type="text/css">
   <![CDATA[
    .fil1 {fill:#1DBF69}
    .fil0 {fill:#FED430}
    .fil2 {fill:white}
   ]]>
  </style>
 </defs>
 <g id="Layer_x0020_1">
  <metadata id="CorelCorpID_0Corel-Layer"/>
  <polygon class="fil0" points="286,111 218,174 150,103 72,176 38,140 152,32 220,104 255,72 289,108 "/>
  <path class="fil1" d="M153 136l102 108 -75 71 -33 -35 36 -34 -37 -40 0 0 -35 -37 38 -36 4 3zm-27 90l-91 85 -35 -37 94 -89 35 37 -3 4z"/>
  <path class="fil2" d="M220 0c10,0 18,4 24,11 6,6 9,14 9,24 -1,9 -5,17 -11,23 -6,6 -15,9 -24,9 -9,0 -18,-5 -23,-11 -6,-6 -10,-15 -9,-24 0,-9 4,-17 10,-23 7,-6 15,-9 24,-9z"/>
 </g>
</svg>
