<svg xmlns="http://www.w3.org/2000/svg" width="256" height="256"><path fill-opacity=".016" d="M0 128.004v128.004l128.25-.254 128.25-.254.254-127.75L257.008 0H0v128.004m.485.496c0 70.4.119 99.053.265 63.672.146-35.38.146-92.98 0-128C.604 29.153.485 58.1.485 128.5" fill="#1976D2" fill-rule="evenodd"/><path fill-opacity=".167" d="M10 128v128h235V0H10v128M181.332 1.898c-23.813 6.132-26.351 39.051-3.832 49.715 21.624 10.24 45.34-14.365 34.44-35.732-2.333-4.572-7.818-10.249-11.984-12.404-3.559-1.84-14.129-2.736-18.624-1.579" fill="#1976D2" fill-rule="evenodd"/><path fill-opacity=".282" d="M10 128v128h235V0H10v128M177.435 2.89c-10.374 4.712-15.743 13.047-15.788 24.512-.033 8.189 1.876 12.763 7.92 18.973 5.249 5.393 10.555 7.578 18.433 7.593 11.609.022 19.484-5.213 24.571-16.336 4.773-10.435 2.212-22.078-6.609-30.047-2.301-2.079-5.694-4.411-7.54-5.182-4.844-2.024-16.03-1.764-20.987.487M127.5 32.78c-20.395 19.521-80.311 76.158-82.881 78.345l-3.083 2.626 13.379 14.159c7.358 7.787 13.722 14.031 14.142 13.874.419-.156 14.555-13.221 31.413-29.034C117.327 96.937 131.472 84 131.904 84c.431 0 13.044 12.818 28.03 28.486l27.246 28.485 20.66-19.152c11.363-10.534 24.116-22.523 28.34-26.643l7.68-7.49-13.115-13.843C223.532 66.229 217.375 60 217.064 60c-.312 0-6.714 5.625-14.228 12.5-7.514 6.875-13.88 12.5-14.145 12.5-.266 0-12.766-13.05-27.777-29-15.011-15.95-27.32-28.991-27.354-28.981-.033.01-2.76 2.603-6.06 5.761" fill="#1976D2" fill-rule="evenodd"/><path fill-opacity=".987" d="M10 128v128h235V0l-26.25.067c-23.43.06-25.79.21-21.972 1.403 8.966 2.799 16.168 11.138 18.24 21.116.907 4.368.813 6.385-.517 11.125-3.71 13.219-13.592 20.816-27.001 20.759-8.401-.035-13.144-2.19-19.139-8.694-5.552-6.024-7.705-12.034-7.192-20.083.743-11.674 7.059-20.007 18.036-23.799C184.413.095 183.064.065 97.25.033L10 0v128m77-57.794c-25.025 23.736-45.59 43.413-45.7 43.725-.109.313 6.015 7.06 13.61 14.993l13.81 14.425 30.111-28.224c16.562-15.523 30.376-28.651 30.699-29.174.324-.523 1.199-.951 1.946-.951.747 0 13.398 12.6 28.113 28s27.101 28 27.523 28C188.238 141 244 89.058 244 88.009c0-1.241-26.249-29.1-27.112-28.774-.386.146-6.636 5.665-13.888 12.265-7.252 6.6-13.544 12.133-13.982 12.296-.437.163-12.883-12.544-27.657-28.237C146.588 39.865 134.05 27.03 133.5 27.037c-.55.006-21.475 19.432-46.5 43.169m28.988 52.508c-7.968 7.543-14.643 14.083-14.832 14.532-.189.449 6.561 8.115 15 17.036 18.073 19.102 38.755 41.437 40.834 44.097 1.367 1.749.466 2.832-12.973 15.605l-14.442 13.725 12.943 13.675c7.119 7.52 13.453 13.548 14.075 13.395.623-.154 14.434-12.85 30.692-28.214l29.56-27.935-3.673-4.147C201.625 181.441 132.461 109 131.557 109c-.595 0-7.601 6.172-15.569 13.714m-67.412 63.8c-20.667 19.629-37.574 35.98-37.572 36.337.003.357 6.259 7.174 13.902 15.149l13.898 14.5 4.348-4.107c2.391-2.258 18.973-17.747 36.848-34.419 17.875-16.672 32.901-31.124 33.39-32.115.725-1.468-1.339-4.171-11.136-14.581-6.614-7.028-12.943-13.604-14.064-14.615-2.014-1.814-2.496-1.402-39.614 33.851" fill="#1976D2" fill-rule="evenodd"/></svg>